# xmcd
#
# Track frame offsets:
#	150
#	13817
#	38867
#	56299
#	76143
#	92431
#	111280
#	132147
#	149046
#	168163
#	192658
#
# Disc length: 2736 seconds
#
# Revision: 2
# Processed by: cddbd v1.5.2PL0 Copyright (c) Steve Scherf et al.
# Submitted via: EasyCDDAExtractor 11.0.0.1
#
DISCID=8f0aae0b
DTITLE=ΚΑΝΕΛΛΙΔΟΥ ΑΛΕΚΑ - ΑΡΓΗΣΕΣ
DYEAR=2002
DGENRE=ΕΝΤΕΧΝΑ
TTITLE0=ΟΚΤΩ ΦΛΕΒΑΡΗ
TTITLE1=ΜΟΝΟΕΣΥ
TTITLE2=ΕΙΝΑΙ Η ΖΩΗ
TTITLE3=ΔΕΝ ΣΕ ΑΔΙΚΩ
TTITLE4=ΜΙΑ ΒΡΑΔΥΑ ΣΤΟ ΣΠΙΤΙ
TTITLE5=ΑΡΓΗΣΕΣ
TTITLE6=ΜΙΑ ΠΕΡΙΠΕΤΕΙΑ
TTITLE7=ΑΝ ΘΑ ΕΡΘΕΙΣ
TTITLE8=ΑΙΧΜΑΛΩΤΟΙ
TTITLE9=ΑΡΓΗΣΕΣ REMIX
TTITLE10=ΓΡΑΜΜΑ
EXTD=
EXTT0=
EXTT1=
EXTT2=
EXTT3=
EXTT4=
EXTT5=
EXTT6=
EXTT7=
EXTT8=
EXTT9=
EXTT10=
PLAYORDER=
